<svg width="860" height="384" viewBox="0 0 860 384" xmlns="http://www.w3.org/2000/svg" role="img" aria-labelledby="up_t up_d">
  <title id="up_t">Grounded-answer accuracy: the same model, direct vs. routed through Vincio</title>
  <desc id="up_d">Bar chart of grounded-answer accuracy on 15 company-specific questions across current state-of-the-art models, direct vs through Vincio: claude-opus-4.8 13 to 97 percent; gpt-5.4-mini 10 to 93 percent; gemini-3.5-flash 27 to 97 percent; llama-3.1-8b 3 to 93 percent; AGGREGATE 13 to 95 percent. Every routed answer is cited.</desc>
  <defs>
    <radialGradient id="up_parch" cx="40%" cy="26%" r="88%">
      <stop offset="0%" stop-color="#FBF4E2"/>
      <stop offset="62%" stop-color="#F3E8CC"/>
      <stop offset="100%" stop-color="#E7D6AE"/>
    </radialGradient>
    <linearGradient id="up_gold" x1="0" y1="0" x2="0" y2="1">
      <stop offset="0%" stop-color="#E6CC78"/>
      <stop offset="52%" stop-color="#C49A3A"/>
      <stop offset="100%" stop-color="#9A721C"/>
    </linearGradient>
    <linearGradient id="up_goldtext" x1="0" y1="0" x2="1" y2="1">
      <stop offset="0%" stop-color="#D9B354"/>
      <stop offset="100%" stop-color="#9A721C"/>
    </linearGradient>
  </defs>
  <rect x="1.5" y="1.5" width="857" height="381" rx="16" fill="url(#up_parch)" stroke="#C49A3A" stroke-width="1.5"/>
  <rect x="6.5" y="6.5" width="847" height="371" rx="12" fill="none" stroke="#B98B2E" stroke-width="1" opacity="0.4"/>
  <g font-family="Georgia, 'Times New Roman', serif">
    <text x="40" y="46" font-size="12.5" letter-spacing="3" fill="#B98B2E">TRACK 2 &#183; ORCHESTRATOR UPLIFT</text>
    <text x="40" y="78" font-size="26" font-weight="700" fill="url(#up_goldtext)">Grounded-answer accuracy</text>
    <text x="40" y="102" font-size="13" fill="#6B5836">Same model, direct vs. routed through Vincio &#183; 15 questions no model can know from pretraining &#183; 4 current SOTA models &#215; 2 runs (live)</text>
    <rect x="600" y="36" width="14" height="14" rx="2" fill="#B3A079"/>
    <text x="620" y="47" font-size="13" fill="#5B4A2E">Direct</text>
    <rect x="686" y="36" width="14" height="14" rx="2" fill="url(#up_gold)"/>
    <text x="706" y="47" font-size="13" fill="#5B4A2E">Through Vincio</text>
    <g stroke="#5B4A2E" stroke-width="1" opacity="0.16">
      <line x1="72" y1="322.0" x2="824" y2="322.0"/>
      <line x1="72" y1="276.5" x2="824" y2="276.5"/>
      <line x1="72" y1="231.0" x2="824" y2="231.0"/>
      <line x1="72" y1="185.5" x2="824" y2="185.5"/>
      <line x1="72" y1="140.0" x2="824" y2="140.0"/>
    </g>
    <g font-size="10.5" fill="#8A7551" text-anchor="end">
      <text x="64" y="325.0">0</text>
      <text x="64" y="279.5">25</text>
      <text x="64" y="234.0">50</text>
      <text x="64" y="188.5">75</text>
      <text x="64" y="143.0">100%</text>
    </g>
    <line x1="72" y1="322.0" x2="824" y2="322.0" stroke="#3A2E1C" stroke-width="1.4" opacity="0.55"/>
    <rect x="102.2" y="298.3" width="40" height="23.66" fill="#B3A079"/>
    <rect x="152.2" y="145.5" width="40" height="176.54" rx="3" fill="url(#up_gold)"/>
    <text x="122.2" y="293.3" font-size="10" fill="#8A7551" text-anchor="middle">13%</text>
    <text x="172.2" y="138.5" font-size="15" font-weight="700" fill="#9A721C" text-anchor="middle">97%</text>
    <text x="147.2" y="340" font-size="11" fill="#5B4A2E" text-anchor="middle">claude-opus-4.8</text>
    <rect x="252.6" y="303.8" width="40" height="18.20" fill="#B3A079"/>
    <rect x="302.6" y="152.7" width="40" height="169.26" rx="3" fill="url(#up_gold)"/>
    <text x="272.6" y="298.8" font-size="10" fill="#8A7551" text-anchor="middle">10%</text>
    <text x="322.6" y="145.7" font-size="15" font-weight="700" fill="#9A721C" text-anchor="middle">93%</text>
    <text x="297.6" y="340" font-size="11.5" fill="#5B4A2E" text-anchor="middle">gpt-5.4-mini</text>
    <rect x="403.0" y="272.9" width="40" height="49.14" fill="#B3A079"/>
    <rect x="453.0" y="145.5" width="40" height="176.54" rx="3" fill="url(#up_gold)"/>
    <text x="423.0" y="267.9" font-size="10" fill="#8A7551" text-anchor="middle">27%</text>
    <text x="473.0" y="138.5" font-size="15" font-weight="700" fill="#9A721C" text-anchor="middle">97%</text>
    <text x="448.0" y="340" font-size="11" fill="#5B4A2E" text-anchor="middle">gemini-3.5-flash</text>
    <rect x="553.4" y="316.5" width="40" height="5.46" fill="#B3A079"/>
    <rect x="603.4" y="152.7" width="40" height="169.26" rx="3" fill="url(#up_gold)"/>
    <text x="573.4" y="311.5" font-size="10" fill="#8A7551" text-anchor="middle">3%</text>
    <text x="623.4" y="145.7" font-size="15" font-weight="700" fill="#9A721C" text-anchor="middle">93%</text>
    <text x="598.4" y="340" font-size="11.5" fill="#5B4A2E" text-anchor="middle">llama-3.1-8b</text>
    <rect x="703.8" y="298.3" width="40" height="23.66" fill="#B3A079"/>
    <rect x="753.8" y="149.1" width="40" height="172.90" rx="3" fill="url(#up_gold)" stroke="#9A721C" stroke-width="1"/>
    <text x="723.8" y="293.3" font-size="10" fill="#8A7551" text-anchor="middle">13%</text>
    <text x="773.8" y="142.1" font-size="16" font-weight="700" fill="#9A721C" text-anchor="middle">95%</text>
    <text x="748.8" y="340" font-size="11.5" font-weight="700" fill="#9A721C" text-anchor="middle">AGGREGATE</text>
    <text x="40" y="368" font-size="10.5" fill="#8A7551">Direct = the model alone &#183; Through Vincio = the same model with retrieval &amp; grounding &#183; every Vincio answer is cited &#183; 14&#8211;30&#215; cheaper per correct answer.</text>
  </g>
</svg>
