<svg width="860" height="532" viewBox="0 0 860 532" xmlns="http://www.w3.org/2000/svg" role="img" aria-labelledby="mtx_t mtx_d">
  <title id="mtx_t">Built-in, in-library capability</title>
  <desc id="mtx_d">Capability comparison matrix of twelve rows across Vincio, LangChain, LlamaIndex, DSPy, and Ragas, showing which capabilities are first-class in-library, partial, or not a focus.</desc>
  <defs>
    <radialGradient id="mtx_parch" cx="40%" cy="26%" r="86%">
      <stop offset="0%" stop-color="#FBF4E2"/>
      <stop offset="62%" stop-color="#F3E8CC"/>
      <stop offset="100%" stop-color="#E7D6AE"/>
    </radialGradient>
    <linearGradient id="mtx_gold" x1="0" y1="0" x2="0" y2="1">
      <stop offset="0%" stop-color="#E6CC78"/>
      <stop offset="52%" stop-color="#C49A3A"/>
      <stop offset="100%" stop-color="#9A721C"/>
    </linearGradient>
    <linearGradient id="mtx_goldtext" x1="0" y1="0" x2="1" y2="1">
      <stop offset="0%" stop-color="#D9B354"/>
      <stop offset="100%" stop-color="#9A721C"/>
    </linearGradient>
  </defs>
  <rect x="1.5" y="1.5" width="857" height="529" rx="16" fill="url(#mtx_parch)" stroke="#C49A3A" stroke-width="1.5"/>
  <rect x="6.5" y="6.5" width="847" height="519" rx="12" fill="none" stroke="#B98B2E" stroke-width="1" opacity="0.4"/>
  <rect x="408" y="160" width="66" height="338" rx="6" fill="url(#mtx_gold)" opacity="0.10"/>
  <g font-family="Georgia, 'Times New Roman', serif">
    <text x="40" y="46" font-size="12.5" letter-spacing="3" fill="#B98B2E">HOW VINCIO COMPARES</text>
    <text x="40" y="78" font-size="26" font-weight="700" fill="url(#mtx_goldtext)">Built-in, in-library capability</text>
    <text x="40" y="102" font-size="13" fill="#6B5836">Not what is reachable by bolting on a separate product or SaaS.</text>

    <text x="441" y="176" font-size="11.5" font-weight="700" fill="#9A721C" text-anchor="middle">VINCIO</text>
    <text x="530" y="176" font-size="11.5" fill="#5B4A2E" text-anchor="middle">LangChain</text>
    <text x="620" y="176" font-size="11.5" fill="#5B4A2E" text-anchor="middle">LlamaIndex</text>
    <text x="710" y="176" font-size="11.5" fill="#5B4A2E" text-anchor="middle">DSPy</text>
    <text x="800" y="176" font-size="11.5" fill="#5B4A2E" text-anchor="middle">Ragas</text>
    <line x1="40" y1="188" x2="818" y2="188" stroke="#C49A3A" stroke-width="0.8" opacity="0.4"/>

    <rect x="34" y="218.5" width="790" height="25" fill="#5B4A2E" opacity="0.05"/>
    <rect x="34" y="268.5" width="790" height="25" fill="#5B4A2E" opacity="0.05"/>
    <rect x="34" y="318.5" width="790" height="25" fill="#5B4A2E" opacity="0.05"/>
    <rect x="34" y="368.5" width="790" height="25" fill="#5B4A2E" opacity="0.05"/>
    <rect x="34" y="418.5" width="790" height="25" fill="#5B4A2E" opacity="0.05"/>
    <rect x="34" y="468.5" width="790" height="25" fill="#5B4A2E" opacity="0.05"/>

    <text x="40" y="210" font-size="12" fill="#3A2E1C">Scored, budgeted context compiler</text>
    <text x="40" y="235" font-size="12" fill="#3A2E1C">Sparse + late-interaction + GraphRAG fusion</text>
    <text x="40" y="260" font-size="12" fill="#3A2E1C">Layered memory (decay, conflicts, bi-temporal)</text>
    <text x="40" y="285" font-size="12" fill="#3A2E1C">Permissioned tool registry (RBAC / ABAC)</text>
    <text x="40" y="310" font-size="12" fill="#3A2E1C">Durable graphs + bounded crews</text>
    <text x="40" y="335" font-size="12" fill="#3A2E1C">Structured output + structure-only repair</text>
    <text x="40" y="360" font-size="12" fill="#3A2E1C">Built-in evals + CI gates</text>
    <text x="40" y="385" font-size="12" fill="#3A2E1C">Eval-driven optimization (gated promotion)</text>
    <text x="40" y="410" font-size="12" fill="#3A2E1C">Native tracing + cost, no account</text>
    <text x="40" y="435" font-size="12" fill="#3A2E1C">Deterministic security (PII / injection / audit)</text>
    <text x="40" y="460" font-size="12" fill="#3A2E1C">MCP client + server, A2A, Skills</text>
    <text x="40" y="485" font-size="12" fill="#3A2E1C">Governance evidence (cards, AI-BOM, erasure)</text>

    <g>
      <circle cx="441" cy="206" r="7" fill="url(#mtx_gold)"/>
      <path d="M437.5 206 L440 208.5 L444.5 203.5" fill="none" stroke="#FFFFFF" stroke-width="2"/>
    </g>
    <g>
      <circle cx="530" cy="206" r="7" fill="none" stroke="#B3A079" stroke-width="2"/>
      <line x1="526.5" y1="206" x2="533.5" y2="206" stroke="#B3A079" stroke-width="2"/>
    </g>
    <g>
      <circle cx="620" cy="206" r="7" fill="none" stroke="#B3A079" stroke-width="2"/>
      <line x1="616.5" y1="206" x2="623.5" y2="206" stroke="#B3A079" stroke-width="2"/>
    </g>
    <circle cx="710" cy="206" r="6.5" fill="none" stroke="#CFC2A2" stroke-width="1.4" opacity="0.7"/>
    <circle cx="800" cy="206" r="6.5" fill="none" stroke="#CFC2A2" stroke-width="1.4" opacity="0.7"/>

    <g>
      <circle cx="441" cy="231" r="7" fill="url(#mtx_gold)"/>
      <path d="M437.5 231 L440 233.5 L444.5 228.5" fill="none" stroke="#FFFFFF" stroke-width="2"/>
    </g>
    <g>
      <circle cx="530" cy="231" r="7" fill="none" stroke="#B3A079" stroke-width="2"/>
      <line x1="526.5" y1="231" x2="533.5" y2="231" stroke="#B3A079" stroke-width="2"/>
    </g>
    <g>
      <circle cx="620" cy="231" r="7" fill="none" stroke="#B3A079" stroke-width="2"/>
      <line x1="616.5" y1="231" x2="623.5" y2="231" stroke="#B3A079" stroke-width="2"/>
    </g>
    <circle cx="710" cy="231" r="6.5" fill="none" stroke="#CFC2A2" stroke-width="1.4" opacity="0.7"/>
    <circle cx="800" cy="231" r="6.5" fill="none" stroke="#CFC2A2" stroke-width="1.4" opacity="0.7"/>

    <g>
      <circle cx="441" cy="256" r="7" fill="url(#mtx_gold)"/>
      <path d="M437.5 256 L440 258.5 L444.5 253.5" fill="none" stroke="#FFFFFF" stroke-width="2"/>
    </g>
    <g>
      <circle cx="530" cy="256" r="7" fill="none" stroke="#B3A079" stroke-width="2"/>
      <line x1="526.5" y1="256" x2="533.5" y2="256" stroke="#B3A079" stroke-width="2"/>
    </g>
    <g>
      <circle cx="620" cy="256" r="7" fill="none" stroke="#B3A079" stroke-width="2"/>
      <line x1="616.5" y1="256" x2="623.5" y2="256" stroke="#B3A079" stroke-width="2"/>
    </g>
    <circle cx="710" cy="256" r="6.5" fill="none" stroke="#CFC2A2" stroke-width="1.4" opacity="0.7"/>
    <circle cx="800" cy="256" r="6.5" fill="none" stroke="#CFC2A2" stroke-width="1.4" opacity="0.7"/>

    <g>
      <circle cx="441" cy="281" r="7" fill="url(#mtx_gold)"/>
      <path d="M437.5 281 L440 283.5 L444.5 278.5" fill="none" stroke="#FFFFFF" stroke-width="2"/>
    </g>
    <circle cx="530" cy="281" r="6.5" fill="none" stroke="#CFC2A2" stroke-width="1.4" opacity="0.7"/>
    <circle cx="620" cy="281" r="6.5" fill="none" stroke="#CFC2A2" stroke-width="1.4" opacity="0.7"/>
    <circle cx="710" cy="281" r="6.5" fill="none" stroke="#CFC2A2" stroke-width="1.4" opacity="0.7"/>
    <circle cx="800" cy="281" r="6.5" fill="none" stroke="#CFC2A2" stroke-width="1.4" opacity="0.7"/>

    <g>
      <circle cx="441" cy="306" r="7" fill="url(#mtx_gold)"/>
      <path d="M437.5 306 L440 308.5 L444.5 303.5" fill="none" stroke="#FFFFFF" stroke-width="2"/>
    </g>
    <g>
      <circle cx="530" cy="306" r="7" fill="none" stroke="#B3A079" stroke-width="2"/>
      <line x1="526.5" y1="306" x2="533.5" y2="306" stroke="#B3A079" stroke-width="2"/>
    </g>
    <circle cx="620" cy="306" r="6.5" fill="none" stroke="#CFC2A2" stroke-width="1.4" opacity="0.7"/>
    <circle cx="710" cy="306" r="6.5" fill="none" stroke="#CFC2A2" stroke-width="1.4" opacity="0.7"/>
    <circle cx="800" cy="306" r="6.5" fill="none" stroke="#CFC2A2" stroke-width="1.4" opacity="0.7"/>

    <g>
      <circle cx="441" cy="331" r="7" fill="url(#mtx_gold)"/>
      <path d="M437.5 331 L440 333.5 L444.5 328.5" fill="none" stroke="#FFFFFF" stroke-width="2"/>
    </g>
    <g>
      <circle cx="530" cy="331" r="7" fill="none" stroke="#B3A079" stroke-width="2"/>
      <line x1="526.5" y1="331" x2="533.5" y2="331" stroke="#B3A079" stroke-width="2"/>
    </g>
    <g>
      <circle cx="620" cy="331" r="7" fill="none" stroke="#B3A079" stroke-width="2"/>
      <line x1="616.5" y1="331" x2="623.5" y2="331" stroke="#B3A079" stroke-width="2"/>
    </g>
    <g>
      <circle cx="710" cy="331" r="7" fill="url(#mtx_gold)"/>
      <path d="M706.5 331 L709 333.5 L713.5 328.5" fill="none" stroke="#FFFFFF" stroke-width="2"/>
    </g>
    <circle cx="800" cy="331" r="6.5" fill="none" stroke="#CFC2A2" stroke-width="1.4" opacity="0.7"/>

    <g>
      <circle cx="441" cy="356" r="7" fill="url(#mtx_gold)"/>
      <path d="M437.5 356 L440 358.5 L444.5 353.5" fill="none" stroke="#FFFFFF" stroke-width="2"/>
    </g>
    <g>
      <circle cx="530" cy="356" r="7" fill="none" stroke="#B3A079" stroke-width="2"/>
      <line x1="526.5" y1="356" x2="533.5" y2="356" stroke="#B3A079" stroke-width="2"/>
    </g>
    <g>
      <circle cx="620" cy="356" r="7" fill="none" stroke="#B3A079" stroke-width="2"/>
      <line x1="616.5" y1="356" x2="623.5" y2="356" stroke="#B3A079" stroke-width="2"/>
    </g>
    <g>
      <circle cx="710" cy="356" r="7" fill="none" stroke="#B3A079" stroke-width="2"/>
      <line x1="706.5" y1="356" x2="713.5" y2="356" stroke="#B3A079" stroke-width="2"/>
    </g>
    <g>
      <circle cx="800" cy="356" r="7" fill="url(#mtx_gold)"/>
      <path d="M796.5 356 L799 358.5 L803.5 353.5" fill="none" stroke="#FFFFFF" stroke-width="2"/>
    </g>

    <g>
      <circle cx="441" cy="381" r="7" fill="url(#mtx_gold)"/>
      <path d="M437.5 381 L440 383.5 L444.5 378.5" fill="none" stroke="#FFFFFF" stroke-width="2"/>
    </g>
    <circle cx="530" cy="381" r="6.5" fill="none" stroke="#CFC2A2" stroke-width="1.4" opacity="0.7"/>
    <circle cx="620" cy="381" r="6.5" fill="none" stroke="#CFC2A2" stroke-width="1.4" opacity="0.7"/>
    <g>
      <circle cx="710" cy="381" r="7" fill="url(#mtx_gold)"/>
      <path d="M706.5 381 L709 383.5 L713.5 378.5" fill="none" stroke="#FFFFFF" stroke-width="2"/>
    </g>
    <circle cx="800" cy="381" r="6.5" fill="none" stroke="#CFC2A2" stroke-width="1.4" opacity="0.7"/>

    <g>
      <circle cx="441" cy="406" r="7" fill="url(#mtx_gold)"/>
      <path d="M437.5 406 L440 408.5 L444.5 403.5" fill="none" stroke="#FFFFFF" stroke-width="2"/>
    </g>
    <g>
      <circle cx="530" cy="406" r="7" fill="none" stroke="#B3A079" stroke-width="2"/>
      <line x1="526.5" y1="406" x2="533.5" y2="406" stroke="#B3A079" stroke-width="2"/>
    </g>
    <g>
      <circle cx="620" cy="406" r="7" fill="none" stroke="#B3A079" stroke-width="2"/>
      <line x1="616.5" y1="406" x2="623.5" y2="406" stroke="#B3A079" stroke-width="2"/>
    </g>
    <circle cx="710" cy="406" r="6.5" fill="none" stroke="#CFC2A2" stroke-width="1.4" opacity="0.7"/>
    <circle cx="800" cy="406" r="6.5" fill="none" stroke="#CFC2A2" stroke-width="1.4" opacity="0.7"/>

    <g>
      <circle cx="441" cy="431" r="7" fill="url(#mtx_gold)"/>
      <path d="M437.5 431 L440 433.5 L444.5 428.5" fill="none" stroke="#FFFFFF" stroke-width="2"/>
    </g>
    <circle cx="530" cy="431" r="6.5" fill="none" stroke="#CFC2A2" stroke-width="1.4" opacity="0.7"/>
    <circle cx="620" cy="431" r="6.5" fill="none" stroke="#CFC2A2" stroke-width="1.4" opacity="0.7"/>
    <circle cx="710" cy="431" r="6.5" fill="none" stroke="#CFC2A2" stroke-width="1.4" opacity="0.7"/>
    <circle cx="800" cy="431" r="6.5" fill="none" stroke="#CFC2A2" stroke-width="1.4" opacity="0.7"/>

    <g>
      <circle cx="441" cy="456" r="7" fill="url(#mtx_gold)"/>
      <path d="M437.5 456 L440 458.5 L444.5 453.5" fill="none" stroke="#FFFFFF" stroke-width="2"/>
    </g>
    <g>
      <circle cx="530" cy="456" r="7" fill="none" stroke="#B3A079" stroke-width="2"/>
      <line x1="526.5" y1="456" x2="533.5" y2="456" stroke="#B3A079" stroke-width="2"/>
    </g>
    <g>
      <circle cx="620" cy="456" r="7" fill="none" stroke="#B3A079" stroke-width="2"/>
      <line x1="616.5" y1="456" x2="623.5" y2="456" stroke="#B3A079" stroke-width="2"/>
    </g>
    <g>
      <circle cx="710" cy="456" r="7" fill="none" stroke="#B3A079" stroke-width="2"/>
      <line x1="706.5" y1="456" x2="713.5" y2="456" stroke="#B3A079" stroke-width="2"/>
    </g>
    <circle cx="800" cy="456" r="6.5" fill="none" stroke="#CFC2A2" stroke-width="1.4" opacity="0.7"/>

    <g>
      <circle cx="441" cy="481" r="7" fill="url(#mtx_gold)"/>
      <path d="M437.5 481 L440 483.5 L444.5 478.5" fill="none" stroke="#FFFFFF" stroke-width="2"/>
    </g>
    <circle cx="530" cy="481" r="6.5" fill="none" stroke="#CFC2A2" stroke-width="1.4" opacity="0.7"/>
    <circle cx="620" cy="481" r="6.5" fill="none" stroke="#CFC2A2" stroke-width="1.4" opacity="0.7"/>
    <circle cx="710" cy="481" r="6.5" fill="none" stroke="#CFC2A2" stroke-width="1.4" opacity="0.7"/>
    <circle cx="800" cy="481" r="6.5" fill="none" stroke="#CFC2A2" stroke-width="1.4" opacity="0.7"/>

    <g>
      <circle cx="46" cy="510" r="7" fill="url(#mtx_gold)"/>
      <path d="M42.5 510 L45 512.5 L49.5 507.5" fill="none" stroke="#FFFFFF" stroke-width="2"/>
    </g>
    <text x="58" y="514" font-size="10.5" fill="#8A7551">first-class in-library</text>

    <g>
      <circle cx="262" cy="510" r="7" fill="none" stroke="#B3A079" stroke-width="2"/>
      <line x1="258.5" y1="510" x2="265.5" y2="510" stroke="#B3A079" stroke-width="2"/>
    </g>
    <text x="274" y="514" font-size="10.5" fill="#8A7551">partial / via add-on or SaaS</text>

    <circle cx="540" cy="510" r="6.5" fill="none" stroke="#CFC2A2" stroke-width="1.4" opacity="0.7"/>
    <text x="552" y="514" font-size="10.5" fill="#8A7551">not a focus</text>
  </g>
</svg>
